<?xml version="1.0" encoding="iso-8859-1"?>
<!-- Generator: Adobe Illustrator 26.2.1, SVG Export Plug-In . SVG Version: 6.00 Build 0)  -->
<svg version="1.1" id="Layer_1" xmlns:dc="http://purl.org/dc/elements/1.1/" xmlns:xl="http://www.w3.org/1999/xlink"
	 xmlns="http://www.w3.org/2000/svg" xmlns:xlink="http://www.w3.org/1999/xlink" x="0px" y="0px" viewBox="0 0 160 54.1"
	 style="enable-background:new 0 0 160 54.1;" xml:space="preserve">
<g id="Canvas_1">
	<g id="Canvas_1_Layer_1">
		<g id="Group_2">
			<g id="Graphic_31">
				<path style="fill:#231F20;" d="M8.1,25.8c-0.5,0.5-1,0.7-1.4,0.7c-0.4,0-1-0.2-1-0.6c0-0.3,0.3-0.3,0.5-0.3
					C6.7,25.6,7.5,25.8,8.1,25.8z M15.8,25v-1.4l-1,0.3c-1.1,0.4-2.6,0.9-3.8,1.1c0.4-0.5,0.9-1.1,0.9-2c0-1.6-1.4-2.3-2.5-2.3
					c-1.6,0-3.2,0.6-4.9,1.4c-1,0.5-2.2,0.9-3.1,1.2l-1,0.3V25l1-0.3c1-0.4,2.2-1.1,3.3-1.5C6.1,22.5,7.1,22,8.1,22s1.7,0.1,1.7,1.5
					c0,0.7-0.1,1.2-0.4,1.7c-1.3-0.1-2.8-0.3-3.6-0.6c-0.5-0.2-0.9-0.4-1.2-0.2c-0.3,0.2-0.4,0.7-0.4,1.3c0,1.3,1.2,1.7,2.1,1.7
					c1.3,0,2.5-0.8,3.6-1.5c1.4,0.2,3.5-0.1,4.9-0.6L15.8,25z"/>
			</g>
			<g id="Graphic_30">
				<path style="fill:#231F20;" d="M27.5,25.3c-2,0.6-5,1.1-5.8,1.1c-0.7,0-1-0.6-1-1.4c0-0.6,0.5-1,0.3-1.5
					c-0.1-0.3-2.4,0.6-4.4,1.2l-1,0.3v-1.4l1-0.3c2.3-0.7,7.5-3.1,8.1-3.1c0.2,0,0.6,0.1,0.6,0.4c0,0.9-3.9,3.8-3.5,4.4
					c0.3,0.4,3.7-0.4,5.7-1.1l1-0.3V25L27.5,25.3z"/>
			</g>
			<g id="Graphic_29">
				<path style="fill:#231F20;" d="M42.5,19.6L37.9,21c0.5-0.6,2-1.7,3.2-1.7C41.6,19.3,42,19.3,42.5,19.6z M48.6,25v-1.4l-1,0.3
					c-1.9,0.6-5.2,1.9-7,3.2l0.9-2.7c0.7-0.7,1.5-1.5,1.5-2.6c0-0.6,0-0.7-0.1-1.2c0.1,0.1,0.4,0.2,0.6,0.2c0.4-0.1,0.8-0.6,0.8-1.1
					c0-1.5-2.2-2.2-3.7-2.2c-2.7,0-5,1.9-6.3,4.3c0,0-3.2,0.7-5,1.3l-1,0.3v1.4l1-0.3c1.3-0.5,3.5-0.9,4.7-1.2
					c0,0.2-0.1,0.4-0.1,0.6c0,1.7,1.8,2.9,2.8,2.9c1.2,0,2.9-1.2,2.9-1.2c-0.4,1.1-1.1,2.9-1.1,2.9c-2.2,1.7-5.6,6.3-8.2,11.2
					c-1.8,3.3-3.9,8.7-3.9,11.9c0,1.5,0.6,2.2,1.4,2.2c1.8,0,4.7-4.9,7.3-11c2-4.6,3.7-9.8,5-14.2c1.8-1.4,5.3-2.8,7.4-3.5L48.6,25z
					 M41.6,21.2l-1.1,2.7c-0.9,0.7-2.4,1.8-3.8,1.8c-0.8,0-1-0.5-1-1.2c0-0.8,0.2-1.4,0.7-1.6C37.4,22.4,39.8,21.7,41.6,21.2z
					 M37.8,31c-1,4.2-4.1,13.2-6,17c-0.8,1.7-2.4,4.6-3.6,4.6c-0.6,0-0.7-0.5-0.7-1.2c0-2,0.8-4.1,1.7-6.5
					C31.1,39.7,35.1,33.3,37.8,31z"/>
			</g>
			<g id="Graphic_28">
				<path style="fill:#231F20;" d="M70.4,25.3c-1.4,0.4-3.5,0.9-4.3,0.9c-0.7,0-1.3-0.6-1.3-1.5c0-0.4,0-0.9-0.3-0.9s-0.6,0.1-1,0.2
					c-2.3,0.6-7.2,2.2-9.4,2.7c-0.4,0.1-1,0.3-1.2,0.3c-0.2,0-0.6-0.2-0.6-0.6c0-0.7,0.8-1.4,0.8-2.2c0-0.3-0.2-0.4-0.4-0.4
					c-0.4,0-1.9,0.4-3.2,0.9l-1,0.3v-1.4l1-0.3c1.9-0.6,5.3-1.4,5.8-1.4c0.3,0,0.6,0.2,0.6,0.9c0,1.2-0.7,1.4-0.5,1.8
					c0.1,0.2,0.6,0,1-0.1c2.4-0.6,6.3-1.7,8.6-2.4c0.7-0.2,1.4-0.4,1.8-0.4c0.4,0,0.6,0.4,0.6,0.9c0,0.7-0.4,1-0.4,1.6
					c0,0.2,0.1,0.4,0.3,0.4c0.4,0,2-0.2,3.2-0.7l1-0.3V25L70.4,25.3z"/>
			</g>
			<g id="Graphic_27">
				<path style="fill:#231F20;" d="M83.3,22.2c-1.1,1.5-3.4,3-4.9,3.2c-0.2,0-0.6-0.1-0.6-0.5c0-1.1,2.5-3,4.6-3
					C82.7,21.9,83,21.9,83.3,22.2z M89.4,25v-1.4l-0.9,0.3c-1.7,0.6-4,1.1-4.6,1.1c-0.2,0-0.4-0.2-0.4-0.5c0-0.8,0.7-1.4,0.7-2.1
					c0-0.2-0.1-0.5-0.3-0.7c0.2-0.2,0.4-0.3,0.4-0.7c0-0.6-1.1-0.7-1.9-0.7c-1.7,0-3.3,0.8-4.8,1.5c0,0-3.5,0.8-5.5,1.4l-1,0.3v1.4
					l1-0.3c1.5-0.6,4-1.1,4-1.1c-0.3,0.4-0.4,0.7-0.4,1.2c0,1.5,1.4,2,2.3,2c2.2,0,3-1.7,3.8-1.7c0.4,0,0.2,0.5,0.4,0.8
					c0.1,0.3,0.4,0.4,1,0.4c1,0,3.5-0.5,5.3-1.1L89.4,25z"/>
			</g>
			<g id="Graphic_26">
				<path style="fill:#231F20;" d="M107.2,25.3c-1.1,0.3-2.5,0.6-4,0.6c-3.2,0-4.7-2.3-4.7-6.1c0-1.4,0.1-2.4,0.5-3.7
					c-1.8,3.7-4.6,7.2-8.7,8.5l-1,0.3v-1.4l1-0.3c5.7-1.9,8.7-8.7,11.5-14.6h-5.2C96.3,8.6,96,8.4,96,8c0-0.4,0.3-0.7,0.6-0.7h5.9
					c1.2-2.2,2.5-4.4,3.5-6.1c0.3-0.6,0.8-0.9,1.4-0.9c0.3,0,0.7,0.3,0.7,0.7c0,0.7-0.4,1.2-0.7,1.9c-0.8,1.5-1.8,3.1-2.5,4.4h2.8
					v1.2h-3.5c-1.4,3-4.2,7.8-4.2,11.8c0,3,1.6,4.2,3.6,4.2c1.3,0,2.5-0.4,3.5-0.7l1-0.3v1.4L107.2,25.3z"/>
			</g>
			<g id="Graphic_25">
				<path style="fill:#231F20;" d="M128.1,25.3c-1.3,0.4-3.2,0.7-4,0.9c-0.4,0.2-0.9,0.3-1.3,0.3c-0.2,0-0.5-0.3-0.5-0.6
					c0-0.7,0.4-1.1,0.4-1.7c0-0.2-0.1-0.4-0.4-0.4c-0.4,0-1,0.3-1.6,0.5c-1.9,0.5-4.9,1.4-7.1,2.1c-0.4,0.1-1,0.4-1.4,0.4
					c-0.3,0-0.6-0.4-0.6-0.7c0-0.6,0.5-1.2,0.5-1.7c0-0.4-0.2-0.4-0.4-0.4c-0.4,0-1.6,0.2-2.8,0.6l-1,0.3v-1.4l1-0.3
					c1.4-0.5,3.4-0.7,4.1-0.7s1.1,0.2,0.9,1.3c-0.1,0.8,0,1,0.2,1c0.4,0,0.8-0.1,1.2-0.2c2.5-0.7,6.4-1.9,8.3-2.5
					c0.5-0.1,1.1-0.3,1.2-0.3c0.3,0,0.4,0.4,0.4,0.7c0,0.6-0.7,1.7-0.6,2c0.1,0.2,2-0.2,3.3-0.6l0.9-0.3V25L128.1,25.3z"/>
			</g>
			<g id="Graphic_24">
				<path style="fill:#231F20;" d="M144.1,25.3c-1.4,0.4-3.5,0.7-4.6,0.7s-2.2-0.6-2.2-2.2c0-0.8,0.2-1.5,0.4-2
					c-0.4,0.1-0.6,0.2-1,0.2c-0.7,0-1.1-0.2-1.5-0.6c-0.7,1.3-3.3,2.6-5.3,3.3l-1,0.3v-1.4l1-0.3c1.6-0.5,4-1.5,4.9-2.5
					c0,0-0.1-0.6-0.1-0.9c0-0.6,0.3-1.4,0.7-1.4c0.4,0,0.6,0.6,0.6,1.1c0,0.3,0,0.5-0.1,0.8c0.3,0.4,0.7,0.6,1.2,0.6
					c0.6,0,1.9-0.4,2.7-0.7c0.4-0.1,0.5-0.1,0.5,0.3c0,0.5-0.4,0.9-0.8,1.5s-0.7,1.5-0.7,2s0.7,0.7,1.5,0.7s2.6-0.4,3.9-0.9l0.9-0.3
					V25L144.1,25.3z"/>
			</g>
			<g id="Graphic_23">
				<path style="fill:#231F20;" d="M154.4,19.8c0,1.3-2.4,1.9-4.2,2.5c0-1.8,2.6-3,3.6-3C154,19.3,154.4,19.3,154.4,19.8z M160,25
					v-1.4l-0.9,0.3c-1.8,0.6-3.5,1.1-5.7,1.1c-1.1,0-2.8-0.4-3-1.5c2.5-0.7,5.7-1.1,5.7-3.8c0-1.2-1.1-1.9-2-1.9
					c-2.6,0-5.3,2.1-5.7,4.9c-0.6,0.2-1.6,0.2-2.5,0.6c0,0-0.9,0.3-1,0.3V25l1-0.3c0.9-0.3,2.1-0.5,2.6-0.7c0.4,1.5,2.1,2.4,3.6,2.4
					c2.7,0,4.7-0.4,6.9-1.1L160,25z"/>
			</g>
			<g id="Graphic_22">
				<path style="fill:#231F20;" d="M4.1,10.2c3.3,0,4.5,1.1,4.5,2.2c0,1.7-2.2,2.5-4.6,2.5H0.9v-4.6h3.2V10.2z M3.4,13.9H4
					c1.4,0,2.1-0.6,2.1-1.6c0-0.8-0.9-1.3-2-1.3H3.4V13.9z"/>
			</g>
			<g id="Graphic_21">
				<path style="fill:#231F20;" d="M14.6,10.2l3.1,4.6h-2.6l-0.6-1.1H12l-0.8,1.1H9.3l3.3-4.6H14.6z M14,13c-0.3-0.6-0.5-1-0.8-1.7
					c-0.3,0.7-0.6,1.1-0.9,1.7H14z"/>
			</g>
			<g id="Graphic_20">
				<path style="fill:#231F20;" d="M20.2,14.8l-2.9-4.6l2.6-0.1c0.6,1.1,1.2,2.2,1.8,3.5c0.6-1.3,1.3-2.4,1.9-3.5l2.1,0.1l-3.1,4.6
					H20.2z"/>
			</g>
			<g id="Graphic_19">
				<path style="fill:#231F20;" d="M31.3,11h-2.5v0.9h2.4v0.9h-2.4v1.1h3v0.9h-5.5v-4.6h5V11z"/>
			</g>
			<g id="Graphic_18">
				<path style="fill:#231F20;" d="M36.5,10.2H39V14h3v0.9h-5.4L36.5,10.2z"/>
			</g>
			<g id="Graphic_17">
				<path style="fill:#231F20;" d="M48,11h-2.5v0.9h2.4v0.9h-2.4v1.1h3v0.9H43v-4.6h5V11z"/>
			</g>
			<g id="Graphic_16">
				<path style="fill:#231F20;" d="M56.8,14.8h-1.6c-1.2-0.8-2.9-2-3.7-2.7v2.7h-1.9v-4.6h1.8c1.2,0.8,2.9,2,3.5,2.7v-2.7h1.9V14.8z
					"/>
			</g>
			<g id="Graphic_15">
				<path style="fill:#231F20;" d="M65.4,14.8h-1.6c-1.2-0.8-2.9-2-3.7-2.7v2.7h-1.9v-4.6H60c1.2,0.8,2.9,2,3.5,2.7v-2.7h1.9V14.8z"
					/>
			</g>
			<g id="Graphic_14">
				<path style="fill:#231F20;" d="M66.6,12.4c0-1.3,1.7-2.3,4.1-2.3c2.4,0,4.1,1,4.1,2.3c0,1.4-1.6,2.5-4.1,2.5
					S66.6,13.8,66.6,12.4z M72.2,12.4c0-0.8-0.4-1.4-1.5-1.4c-1,0-1.5,0.6-1.5,1.4c0,0.9,0.4,1.5,1.5,1.5
					C71.8,13.9,72.2,13.3,72.2,12.4z"/>
			</g>
			<g id="Graphic_13">
				<path style="fill:#231F20;" d="M80.7,12.2l2.7,2.5l-2.6,0.2l-1.4-1.6l-1.6,1.6l-2.2-0.2l2.6-2.4l-2.1-2.1l2.5-0.1l1,1.2l1.2-1.2
					l2.1,0.1L80.7,12.2z"/>
			</g>
			<g id="Graphic_12">
				<path style="fill:#231F20;" d="M80.1,34.1c-0.5,0.1-1.2,0.2-2,0.2c-2.7,0-4.9-0.9-4.9-2.4c0-1.4,2-2.4,4.8-2.4
					c0.5,0,1.5,0.1,2.1,0.2l-0.6,0.8c-0.4-0.1-1.1-0.1-1.4-0.1c-1.2,0-2.4,0.4-2.4,1.4s1.2,1.4,2.5,1.4c0.5,0,1-0.1,1.4-0.1
					L80.1,34.1z"/>
			</g>
			<g id="Graphic_11">
				<path style="fill:#231F20;" d="M82,31.8c0-1.3,1.7-2.3,4.1-2.3c2.4,0,4.1,1,4.1,2.3c0,1.4-1.6,2.5-4.1,2.5
					C83.5,34.3,82,33.2,82,31.8z M87.5,31.8c0-0.8-0.4-1.4-1.5-1.4c-1,0-1.5,0.6-1.5,1.4c0,0.9,0.4,1.5,1.5,1.5S87.5,32.7,87.5,31.8
					z"/>
			</g>
			<g id="Graphic_10">
				<path style="fill:#231F20;" d="M92.3,29.6h2.5v3.8h3v0.9h-5.4v-4.7H92.3z"/>
			</g>
			<g id="Graphic_9">
				<path style="fill:#231F20;" d="M99.7,29.6h2.5v3.8h3v0.9h-5.4v-4.7H99.7z"/>
			</g>
			<g id="Graphic_8">
				<path style="fill:#231F20;" d="M112.2,30.4h-2.5v0.9h2.4v0.9h-2.4v1.1h3v0.9h-5.5v-4.6h5V30.4z"/>
			</g>
			<g id="Graphic_7">
				<path style="fill:#231F20;" d="M121.4,34.1c-0.5,0.1-1.2,0.2-2,0.2c-2.7,0-4.9-0.9-4.9-2.4c0-1.4,2-2.4,4.8-2.4
					c0.5,0,1.5,0.1,2.1,0.2l-0.6,0.8c-0.4-0.1-1.1-0.1-1.4-0.1c-1.2,0-2.4,0.4-2.4,1.4s1.2,1.4,2.5,1.4c0.5,0,1-0.1,1.4-0.1
					L121.4,34.1z"/>
			</g>
			<g id="Graphic_6">
				<path style="fill:#231F20;" d="M125.2,34.2v-3.8h-2.4v-0.9h7.2v0.9h-2.4v3.8H125.2z"/>
			</g>
			<g id="Graphic_5">
				<rect x="131.8" y="29.6" style="fill:#231F20;" width="2.5" height="4.6"/>
			</g>
			<g id="Graphic_4">
				<path style="fill:#231F20;" d="M136.4,31.8c0-1.3,1.7-2.3,4.1-2.3c2.3,0,4.1,1,4.1,2.3c0,1.4-1.6,2.5-4.1,2.5
					S136.4,33.2,136.4,31.8z M142,31.8c0-0.8-0.4-1.4-1.5-1.4c-1,0-1.5,0.6-1.5,1.4c0,0.9,0.4,1.5,1.5,1.5S142,32.7,142,31.8z"/>
			</g>
			<g id="Graphic_3">
				<path style="fill:#231F20;" d="M154,34.2h-1.6c-1.2-0.8-2.9-2-3.7-2.7v2.7h-1.9v-4.6h1.8c1.2,0.8,2.9,2,3.5,2.7v-2.7h1.9V34.2z"
					/>
			</g>
		</g>
		<g id="Graphic_32">
		</g>
		<g id="Graphic_33">
			<path style="fill:#231F20;" d="M155.5,15.6c0.9,0,1.6,0.7,1.6,1.6c0,0.9-0.7,1.6-1.6,1.6s-1.6-0.7-1.6-1.6
				C153.8,16.3,154.6,15.6,155.5,15.6z M155.5,15.9c-0.7,0-1.3,0.6-1.3,1.4s0.6,1.4,1.3,1.4s1.3-0.6,1.3-1.4S156.2,15.9,155.5,15.9z
				 M155.2,18.2h-0.3v-1.8h0.5c0.3,0,0.5,0.1,0.6,0.1c0.1,0.1,0.2,0.2,0.2,0.4s-0.2,0.4-0.4,0.4c0.2,0,0.3,0.2,0.3,0.4
				c0,0.3,0.1,0.4,0.1,0.4h-0.3c0-0.1-0.1-0.2-0.1-0.5c0-0.2-0.2-0.3-0.4-0.3h-0.2V18.2z M155.2,17.2h0.2c0.2,0,0.4-0.1,0.4-0.3
				s-0.1-0.3-0.4-0.3c-0.1,0-0.2,0-0.2,0V17.2z"/>
		</g>
	</g>
</g>
</svg>
