<?xml version="1.0" encoding="iso-8859-1"?>
<!-- Generator: Adobe Illustrator 26.2.1, SVG Export Plug-In . SVG Version: 6.00 Build 0)  -->
<svg version="1.1" id="Layer_1" xmlns:dc="http://purl.org/dc/elements/1.1/" xmlns:xl="http://www.w3.org/1999/xlink"
	 xmlns="http://www.w3.org/2000/svg" xmlns:xlink="http://www.w3.org/1999/xlink" x="0px" y="0px" viewBox="0 0 160 51.9"
	 style="enable-background:new 0 0 160 51.9;" xml:space="preserve">
<g id="Canvas_1">
	<g id="Canvas_1_Layer_1">
		<g id="Group_2">
			<g id="Graphic_14">
				<path style="fill:#231F20;" d="M14,8.2c0.4-0.4,0.9-0.7,1.5-0.7h19.4l1.2-5.3H10.9c-0.8,0-1.6,0.1-2.4,0.4S7,3.3,6.4,3.8
					S5.2,4.9,4.8,5.6C4.3,6.3,4,7,3.9,7.8L0.2,25c-0.2,0.8-0.2,1.5,0,2.2c0.2,0.7,0.4,1.3,0.9,1.8c0.4,0.5,0.9,0.9,1.6,1.2
					c0.7,0.3,1.4,0.5,2.2,0.5h25.2l1.2-5.3H11.8c-0.5,0-1-0.4-1.3-0.8s-0.4-1-0.3-1.6l0.8-4h15l1.2-5.3h-15l0.8-4
					C13.2,9.2,13.5,8.6,14,8.2z"/>
			</g>
			<g id="Graphic_13">
				<path style="fill:#231F20;" d="M60.5,25.5H46.6c-0.5,0-1-0.4-1.3-0.8c-0.3-0.4-0.4-0.9-0.3-1.5l4.5-21.1h-9.7L34.9,25
					c-0.2,0.8-0.2,1.5,0,2.2c0.2,0.7,0.4,1.3,0.9,1.8c0.4,0.5,0.9,0.9,1.6,1.2c0.6,0.3,1.4,0.5,2.2,0.5h19.7L60.5,25.5z"/>
			</g>
			<g id="Graphic_12">
				<path style="fill:#231F20;" d="M78.9,2.2h-9.6l-6.2,28.6h9.7L78.9,2.2z"/>
			</g>
			<g id="Graphic_11">
				<path style="fill:#231F20;" d="M82.8,2.2l-1.2,5.3h10.6l-4.9,23.3H97l4.9-23.3h10.7l1.2-5.3H82.8z"/>
			</g>
			<g id="Graphic_10">
				<path style="fill:#231F20;" d="M126.9,8.2c0.4-0.4,0.9-0.8,1.5-0.8h19.4l1.2-5.3h-25.2c-0.8,0-1.6,0.1-2.4,0.4
					c-0.8,0.3-1.5,0.7-2.1,1.2c-0.6,0.5-1.2,1.1-1.6,1.8c-0.5,0.7-0.8,1.4-0.9,2.2l-3.7,17.2c-0.2,0.8-0.2,1.5,0,2.2
					c0.2,0.7,0.4,1.3,0.9,1.8c0.4,0.5,0.9,0.9,1.6,1.2c0.6,0.3,1.4,0.5,2.2,0.5H143l1.2-5.3h-19.4c-0.5,0-1-0.4-1.3-0.8
					s-0.4-1-0.3-1.6l0.8-4h15l1.2-5.3h-15l0.8-4C126.2,9.2,126.5,8.6,126.9,8.2z"/>
			</g>
			<g id="Graphic_9">
				<path style="fill:#231F20;" d="M58.1,44.5l-2.9-0.4c-2.5-0.3-2.8-0.9-2.8-1.4c0-1.1,1.6-1.5,3.3-1.5c2.9,0,3.9,0.9,4.3,2
					l2.3-0.7c-0.3-0.8-1.2-3.3-6.5-3.3c-1,0-5.8,0-5.8,3.6c0,1.9,1.6,3.1,4.4,3.5l3,0.4c1.8,0.2,2.7,0.7,2.7,1.5
					c0,1.1-1.6,1.7-3.6,1.7c-3.3,0-4.2-1.3-4.6-2.2l-2.4,0.8c0.3,0.9,1.6,3.5,6.9,3.5c3.3,0,6.1-1.1,6.1-3.9
					C62.5,46,60.8,44.9,58.1,44.5z"/>
			</g>
			<g id="Graphic_8">
				<path style="fill:#231F20;" d="M71,46.7h7.4v-2.2H71v-3.1h8.5v-2.2H67.8V52h11.7v-2.2H71V46.7z"/>
			</g>
			<g id="Graphic_7">
				<path style="fill:#231F20;" d="M97.6,43c0-3-2.1-3.8-5-3.8h-7.9v12.7h3.2v-5.3h3.5l3.6,5.3h3l-3.8-5.2
					C96,46.7,97.6,45.2,97.6,43z M87.9,44.5v-3.2h4.3c2,0,3,0.2,3,1.6c0,1.4-1,1.6-3,1.6H87.9z"/>
			</g>
			<g id="Graphic_6">
				<rect x="103.8" y="39.2" style="fill:#231F20;" width="3.2" height="12.7"/>
			</g>
			<g id="Graphic_5">
				<path style="fill:#231F20;" d="M115.5,46.7h7.4v-2.2h-7.4v-3.1h8.5v-2.2h-10.6V52H125v-2.2h-9.5V46.7z"/>
			</g>
			<g id="Graphic_4">
				<path style="fill:#231F20;" d="M138,44.5l-2.9-0.4c-2.5-0.3-2.8-0.9-2.8-1.4c0-1.1,1.6-1.5,3.3-1.5c2.9,0,3.9,0.9,4.3,2l2.3-0.7
					c-0.3-0.8-1.2-3.3-6.5-3.3c-1,0-5.8,0-5.8,3.6c0,1.9,1.6,3.1,4.4,3.5l3,0.4c1.8,0.2,2.7,0.7,2.7,1.5c0,1.1-1.6,1.7-3.6,1.7
					c-3.3,0-4.2-1.3-4.6-2.2l-2.3,0.8c0.3,0.9,1.6,3.5,6.9,3.5c3.3,0,6.1-1.1,6.1-3.9C142.4,46,140.8,44.9,138,44.5z"/>
			</g>
			<g id="Graphic_3">
				<path style="fill:#231F20;" d="M160,4c0,2.3-1.8,4-4.1,4c-2.3,0-4.2-1.8-4.2-4s1.8-4,4.2-4C158.2,0,160,1.8,160,4z M152.7,4
					c0,1.8,1.3,3.2,3.2,3.2c1.8,0,3.1-1.4,3.1-3.2s-1.3-3.2-3.1-3.2C154.1,0.8,152.7,2.3,152.7,4z M155.2,6.1h-0.9v-4
					c0.4-0.1,0.9-0.1,1.6-0.1c0.8,0,1.1,0.1,1.4,0.3c0.2,0.2,0.4,0.5,0.4,0.9s-0.3,0.8-0.8,0.9v0.1c0.4,0.1,0.6,0.4,0.7,1
					c0.1,0.6,0.2,0.8,0.3,1h-1c-0.1-0.1-0.2-0.5-0.3-1c-0.1-0.4-0.3-0.6-0.8-0.6h-0.4L155.2,6.1z M155.2,3.9h0.4
					c0.5,0,0.9-0.2,0.9-0.6s-0.3-0.6-0.9-0.6c-0.2,0-0.4,0-0.5,0L155.2,3.9z"/>
			</g>
		</g>
	</g>
</g>
</svg>
