<?xml version="1.0" encoding="iso-8859-1"?>
<!-- Generator: Adobe Illustrator 26.2.1, SVG Export Plug-In . SVG Version: 6.00 Build 0)  -->
<svg version="1.1" id="Layer_1" xmlns:dc="http://purl.org/dc/elements/1.1/" xmlns:xl="http://www.w3.org/1999/xlink"
	 xmlns="http://www.w3.org/2000/svg" xmlns:xlink="http://www.w3.org/1999/xlink" x="0px" y="0px" viewBox="0 0 160 46.3"
	 style="enable-background:new 0 0 160 46.3;" xml:space="preserve">
<g id="Canvas_1">
	<g id="Canvas_1_Layer_1">
		<g id="Group_2">
			<g id="Graphic_16">
				<path style="fill:#231F20;" d="M68.5,0h24.3c4.3,0,6.4,1.5,6.4,5.5v6.7c0,4-2,5.5-6.4,5.5h-3.7l13,10.7h-9.5L81.2,17.7h-6.3
					v10.7h-6.5V0H68.5z M75,4.9v7.9h14.8c2,0,3-0.4,3-2.3V7.2c0-1.9-0.9-2.3-3-2.3H75z"/>
			</g>
			<g id="Graphic_15">
				<rect x="105.7" y="0" style="fill:#231F20;" width="6.6" height="28.4"/>
			</g>
			<g id="Graphic_14">
				<path style="fill:#231F20;" d="M136.6,28.4H130V5.1h-13V0h32.7v5.1h-13.1V28.4z"/>
			</g>
			<g id="Graphic_13">
				<rect x="43.2" y="11.2" style="fill:#231F20;" width="12.2" height="4.8"/>
			</g>
			<g id="Graphic_12">
				<rect x="43.2" y="23" style="fill:#231F20;" width="21.8" height="5.3"/>
			</g>
			<g id="Graphic_11">
				<rect x="43.2" y="0" style="fill:#231F20;" width="21.5" height="4.8"/>
			</g>
			<g id="Graphic_10">
				<path style="fill:#231F20;" d="M0,0h5.4l13.4,17.2L31.8,0h5.3v28.4H31V9L18.9,25h-1.3L5.4,9v19.4H0.1V0H0z"/>
			</g>
			<g id="Graphic_9">
				<path style="fill:#231F20;" d="M160,3.9c0,2.2-1.7,3.9-4,3.9c-2.2,0-4-1.7-4-3.9c0-2.1,1.8-3.9,4-3.9C158.3,0,160,1.7,160,3.9z
					 M153.1,3.9c0,1.7,1.3,3.1,3,3.1s3-1.4,3-3.1s-1.3-3.1-3-3.1C154.3,0.8,153.1,2.2,153.1,3.9z M155.4,5.9h-0.9V2
					c0.4-0.1,0.9-0.1,1.5-0.1c0.7,0,1.1,0.1,1.3,0.3c0.2,0.2,0.4,0.5,0.4,0.9s-0.3,0.8-0.8,0.9c0.4,0.1,0.6,0.4,0.7,0.9
					c0.1,0.6,0.2,0.8,0.3,1h-1c-0.1-0.1-0.2-0.5-0.3-0.9c0-0.5-0.2-0.6-0.7-0.6h-0.5V5.9z M155.5,3.7h0.4c0.5,0,0.9-0.2,0.9-0.6
					s-0.3-0.6-0.8-0.6c-0.2,0-0.4,0-0.5,0V3.7z"/>
			</g>
			<g id="Graphic_8">
				<path style="fill:#231F20;" d="M68.5,37.7c-0.4-1.1-1.3-2-4.2-2c-1.6,0-3.2,0.4-3.2,1.5c0,0.5,0.3,1,2.7,1.3l2.8,0.4
					c2.7,0.4,4.2,1.4,4.2,3.4c0,2.8-2.7,3.9-5.9,3.9c-5.1,0-6.4-2.5-6.6-3.4l2.2-0.7c0.4,0.9,1.3,2.1,4.5,2.1c1.9,0,3.5-0.6,3.5-1.7
					c0-0.8-0.9-1.3-2.6-1.5L63,40.6c-2.6-0.2-4.2-1.4-4.2-3.2c0-3.6,4.6-3.6,5.6-3.6c5.1,0,6,2.4,6.3,3.2L68.5,37.7z"/>
			</g>
			<g id="Graphic_7">
				<path style="fill:#231F20;" d="M76.5,34.1h10.7v2h-8.4v2.8H86v2h-7.2V44h8.6v2H76.5V34.1z"/>
			</g>
			<g id="Graphic_6">
				<path style="fill:#231F20;" d="M92.8,34.1h7.2c2.8,0,4.9,0.6,4.9,3.6c0,2.2-1.6,3.4-3.3,3.5l3.7,4.9h-2.9l-3.5-4.7h-3.7v4.7
					h-2.3L92.8,34.1z M99.6,39.4c1.9,0,2.9-0.3,2.9-1.7c0-1.4-1-1.7-2.9-1.7h-4.5v3.4H99.6z"/>
			</g>
			<g id="Graphic_5">
				<rect x="111.2" y="34.1" style="fill:#231F20;" width="2.3" height="11.9"/>
			</g>
			<g id="Graphic_4">
				<path style="fill:#231F20;" d="M120.1,34.1h10.7v2h-8.4v2.8h7.2v2h-7.2V44h8.6v2h-10.9V34.1z"/>
			</g>
			<g id="Graphic_3">
				<path style="fill:#231F20;" d="M145.7,37.7c-0.4-1.1-1.3-2-4.2-2c-1.6,0-3.2,0.4-3.2,1.5c0,0.5,0.3,1,2.7,1.3l2.8,0.4
					c2.7,0.4,4.2,1.4,4.2,3.4c0,2.8-2.7,3.9-5.9,3.9c-5.1,0-6.4-2.5-6.6-3.4l2.2-0.7c0.4,0.9,1.3,2.1,4.5,2.1c1.9,0,3.5-0.6,3.5-1.7
					c0-0.8-0.9-1.3-2.6-1.5l-2.9-0.4c-2.8-0.4-4.3-1.6-4.3-3.4c0-3.6,4.6-3.6,5.6-3.6c5.1,0,6,2.4,6.3,3.2L145.7,37.7z"/>
			</g>
		</g>
	</g>
</g>
</svg>
